<?xml version="1.0" encoding="UTF-8" standalone="no"?>
<svg
   xmlns:dc="http://purl.org/dc/elements/1.1/"
   xmlns:cc="http://creativecommons.org/ns#"
   xmlns:rdf="http://www.w3.org/1999/02/22-rdf-syntax-ns#"
   xmlns:svg="http://www.w3.org/2000/svg"
   xmlns="http://www.w3.org/2000/svg"
   xmlns:xlink="http://www.w3.org/1999/xlink"
   xmlns:sodipodi="http://sodipodi.sourceforge.net/DTD/sodipodi-0.dtd"
   xmlns:inkscape="http://www.inkscape.org/namespaces/inkscape"
   width="272.058"
   height="343.582"
   viewBox="0 0 71.982 90.906"
   version="1.1"
   id="svg409"
   sodipodi:docname="Coat_of_arms_of_Pekalongan_Regency.svg"
   inkscape:version="1.0.1 (3bc2e813f5, 2020-09-07)">
  <metadata
     id="metadata413">
    <rdf:RDF>
      <cc:Work
         rdf:about="">
        <dc:format>image/svg+xml</dc:format>
        <dc:type
           rdf:resource="http://purl.org/dc/dcmitype/StillImage" />
      </cc:Work>
    </rdf:RDF>
  </metadata>
  <sodipodi:namedview
     pagecolor="#ffffff"
     bordercolor="#666666"
     borderopacity="1"
     objecttolerance="10"
     gridtolerance="10"
     guidetolerance="10"
     inkscape:pageopacity="0"
     inkscape:pageshadow="2"
     inkscape:window-width="1366"
     inkscape:window-height="705"
     id="namedview411"
     showgrid="false"
     inkscape:zoom="0.5671691"
     inkscape:cx="-57.040142"
     inkscape:cy="256.13704"
     inkscape:window-x="-8"
     inkscape:window-y="-8"
     inkscape:window-maximized="1"
     inkscape:current-layer="svg409"
     inkscape:document-rotation="0"
     showguides="false"
     inkscape:snap-global="true" />
  <style
     id="style2"><![CDATA[.B{stroke:#000}.C{stroke-width:1.058}.D{fill:#ffe100}.E{stroke-miterlimit:10}.F{fill:none}.G{opacity:.997}.H{stroke:#007d44}.I{fill-rule:evenodd}.J{stroke-width:.593}.K{fill:#fff}.L{stroke-width:.926}.M{stroke-width:.565}.N{stroke-width:.665}.O{stroke-miterlimit:20}.P{stroke-width:.794}.Q{stroke-width:.864}.R{stroke-width:.635}]]></style>
  <g
     id="g1379">
    <g
       id="g1181">
      <path
         id="path1942"
         d="m 61.440058,11.982832 c 10.128036,2.071872 10.278147,9.867581 10.033376,12.345538 -0.130507,3.225154 -1.371166,7.710571 -4.129742,12.710735 -2.758577,5.000165 -7.115167,10.323517 -13.608043,13.897063 -1.109592,0.609968 -2.458353,0.589243 -3.548341,-0.05545 -1.089988,-0.644695 -1.758767,-1.81646 -1.758767,-3.082324 v -9.28114 c 5.6e-4,-1.674189 1.160562,-3.124893 2.793863,-3.492889 6.809342,-1.533041 11.722129,-7.332492 13.276453,-11.976982 0.227408,-0.639654 2.428108,-7.113486 -3.058799,-11.064551 z"
         style="fill:#ffe100;stroke:#000000;stroke-width:0.592666;stroke-miterlimit:10;stroke-dasharray:none" />
      <path
         id="path1944"
         d="m 67.894287,24.1833 c -0.183159,4.527986 -4.35435,17.268967 -15.886039,23.615653 V 38.517254 C 60.254851,36.660466 65.936118,30.033162 67.894287,24.1833 Z"
         style="fill:none;stroke:#007d44;stroke-width:0.592604;stroke-miterlimit:10;stroke-dasharray:none" />
      <path
         id="path1946"
         d="m 63.104166,34.700617 c -2.122283,3.846884 -5.367601,7.781145 -9.835094,10.751446 v -6.006135 c 4.353789,-1.19865 7.958142,-3.601552 10.692633,-6.520042 z"
         style="fill:none;stroke:#007d44;stroke-width:0.592604;stroke-miterlimit:10"
         sodipodi:nodetypes="ccccc" />
      <path
         id="path1948"
         d="m 69.29738,18.5334 c 1.125275,2.225345 1.114632,4.583997 1.00597,5.679586 -0.0022,0.02254 -0.0036,0.04514 -0.0045,0.06777 -0.120425,2.968621 -1.297791,7.32017 -3.984673,12.190947 -2.676239,4.851173 -6.889999,9.991927 -13.144825,13.434966 -0.728712,0.400484 -1.668589,0.385921 -2.384418,-0.03753 -0.71583,-0.423448 -1.181287,-1.239538 -1.181287,-2.070752 v -5.6e-4 -9.280579 -5.6e-4 c 0,-1.082146 0.821692,-2.10884 1.876952,-2.34689 7.308406,-1.645618 12.431796,-7.674717 14.130631,-12.745456 0.137788,-0.388722 0.793125,-2.303202 0.674941,-4.725708 -0.06441,-1.311233 -0.394883,-2.792183 -1.14684,-4.224402 2.157851,1.106791 3.406352,2.572057 4.158029,4.059168 z"
         style="fill:none;stroke:#007d44;stroke-width:0.592604"
         sodipodi:nodetypes="cccccssccsccccc" />
      <path
         id="path1950"
         d="m 68.201231,19.087356 c 0.970682,1.919521 0.973483,4.058607 0.879943,5.004645 l -0.0095,0.138909 c -0.109222,2.700324 -1.220495,6.912404 -3.83288,11.647073 -2.589981,4.694901 -6.65475,9.645775 -12.661445,12.952145 -0.713029,0.392082 -1.745324,-0.217325 -1.745885,-1.031735 v -5.6e-4 -9.280019 -5.6e-4 c 0.01345,-0.545777 0.389142,-1.015625 0.918592,-1.1488 v 0 c 7.830434,-1.763248 13.17395,-8.033198 15.024017,-13.54979 0.162433,-0.459296 0.868741,-2.517726 0.738234,-5.179962 -0.01232,-0.248132 -0.04313,-0.508026 -0.07337,-0.767641 0.299662,0.399644 0.555075,0.806849 0.762319,1.216295 z"
         style="fill:none;stroke:#007d44;stroke-width:0.592604"
         sodipodi:nodetypes="cccccscccsscccc" />
      <path
         id="path1952"
         d="m 50.29093,44.786084 v 11.53841 C 72.251437,49.837219 72.569583,35.632092 71.250508,29.278404 69.82333,31.496748 64.736907,41.100514 50.29093,44.786084 Z"
         style="fill:#ffe100;stroke:#000000;stroke-width:0.592604"
         sodipodi:nodetypes="cccc" />
      <path
         id="path1954"
         d="m 70.515634,32.455668 c 0.157953,2.806746 -0.202202,6.285633 -2.006339,9.783564 -2.389459,4.632727 -7.332492,9.345552 -17.102052,12.533738 V 45.590972 C 58.33757,43.657448 63.191544,40.404288 66.42734,37.284437 a 31.170511,31.170511 0 0 0 4.088294,-4.828769 z"
         style="fill:none;stroke:#007d44;stroke-width:0.592604" />
      <path
         id="path1956"
         d="m 67.420428,41.677994 c -2.1038,4.078212 -6.320921,8.314937 -14.788209,11.39278 v -6.593137 c 6.639066,-2.019782 11.433108,-5.213009 14.644819,-8.309896 0.679982,-0.655897 1.24738,-1.298351 1.807497,-1.935484 -0.250372,1.747845 -0.705187,3.586709 -1.664107,5.445737 z"
         style="fill:none;stroke:#007d44;stroke-width:0.592604"
         sodipodi:nodetypes="cccccc" />
      <path
         id="path1958"
         d="m 66.257625,41.078109 c -1.798536,3.487289 -5.297027,7.17958 -12.316973,10.076505 v -3.73486 c 5.330633,-1.759888 9.443012,-4.236725 12.502932,-6.821945 -0.07618,0.161033 -0.103062,0.319547 -0.185959,0.4803 z"
         style="fill:none;stroke:#007d44;stroke-width:0.592604;stroke-miterlimit:10"
         sodipodi:nodetypes="ccccc" />
      <path
         id="path1960"
         d="m 71.319962,43.645125 c -2.842594,3.489529 -7.974946,7.493246 -23.278462,9.057092 v 9.057092 C 70.081543,60.956661 71.207379,48.893422 71.319962,43.645125 Z"
         style="fill:#ffe100;stroke:#000000;stroke-width:0.592604" />
      <path
         id="path1962"
         d="m 69.850775,46.746493 c -0.324307,2.165413 -1.038457,4.620405 -2.866118,6.879917 -2.684641,3.319814 -7.805231,6.281712 -17.761871,6.864794 v -6.754451 c 11.48744,-1.310113 17.253284,-4.102297 20.627989,-6.99026 z"
         style="fill:none;stroke:#007d44;stroke-width:0.592604" />
      <path
         id="path1964"
         d="m 66.09071,52.902739 c -2.328967,2.879562 -6.912404,5.519953 -15.718563,6.268269 v -4.430525 c 8.446564,-1.068143 13.937951,-2.982063 17.551826,-5.164559 -0.424569,1.124995 -0.965082,2.253071 -1.833263,3.326815 z"
         style="fill:none;stroke:#007d44;stroke-width:0.592604"
         sodipodi:nodetypes="ccccc" />
      <path
         id="path1966"
         d="m 64.091092,52.904419 c -2.080274,2.079715 -5.767525,3.955547 -12.330415,4.731309 v -1.682592 c 5.112187,-0.727592 9.148951,-1.787893 12.330415,-3.048717 z"
         style="fill:none;stroke:#007d44;stroke-width:0.592604;stroke-miterlimit:10" />
      <path
         d="m 66.04198,59.631985 c -4.550951,0.683343 -9.123746,2.028744 -17.677853,2.169893 v 7.092201 c 12.06604,0.85866 15.103555,-4.054126 17.677853,-9.262094 z"
         class="B D"
         id="path1968"
         style="stroke-width:0.592604" />
      <path
         id="path1970"
         d="m 60.129945,65.613474 c -2.181656,1.493272 -5.442657,2.401222 -10.644464,2.179415 V 62.86442 c 6.593138,-0.202762 10.731282,-1.048539 14.404529,-1.717599 -0.985246,1.72264 -2.076914,3.314493 -3.760065,4.466653 z"
         style="fill:none;stroke:#007d44;stroke-width:0.592604"
         sodipodi:nodetypes="ccccc" />
      <path
         id="path1972"
         d="m 59.467886,64.646712 c -1.781172,1.218815 -4.481496,2.036026 -8.81288,1.996257 v -2.670638 c 4.577836,-0.207803 7.910532,-0.682222 10.792054,-1.208452 -0.578321,0.703787 -1.205652,1.353523 -1.979174,1.882833 z"
         style="fill:none;stroke:#007d44;stroke-width:0.592604"
         sodipodi:nodetypes="scccs" />
      <path
         d="m 51.141187,65.624677 v -0.548355 c 2.108841,-0.124346 4.012678,-0.292941 5.685188,-0.519509 -1.335319,0.595125 -3.152899,0.998969 -5.685188,1.067864 z"
         class="O"
         id="path1974"
         style="fill:none;stroke:#007d44;stroke-width:0.592604"
         sodipodi:nodetypes="cccc" />
    </g>
    <g
       id="g1340">
      <path
         d="m 49.58683,56.613325 v 5.692078 c 7.627016,-0.471741 11.907068,-6.425276 11.625623,-10.997967 -2.429068,3.71796 -6.402089,4.135331 -11.625623,5.30509 z"
         id="path1980"
         style="fill:#ffe100;stroke:#000000;stroke-width:0.47414" />
      <path
         d="m 50.519118,61.218799 v -3.853086 c 2.282748,-0.49333 4.385595,-0.889912 6.248573,-1.573537 1.103395,-0.404578 2.128432,-0.942683 3.055524,-1.652694 -1.105394,3.180656 -4.305239,6.396492 -9.304097,7.079317 z"
         id="path1992"
         style="fill:none;stroke:#007d44;stroke-width:0.47414"
         sodipodi:nodetypes="ccccc" />
      <path
         d="m 49.718757,52.402835 v 5.336273 c 10.638165,-2.667337 12.682644,-9.067826 11.600837,-14.596794 -1.874972,5.21554 -6.389295,7.707773 -11.600837,9.260521 z"
         id="path1978"
         style="fill:#ffe100;stroke:#000000;stroke-width:0.47414" />
      <g
         id="g1276">
        <path
           d="m 49.718757,46.646792 v 5.755243 c 10.844452,-2.891214 9.537968,-10.497442 9.775438,-13.669302 -2.44346,3.091105 -4.563896,6.361311 -9.775438,7.91326 z"
           id="path1976"
           style="fill:#ffe100;stroke:#000000;stroke-width:0.47414" />
        <path
           d="m 57.671195,45.309126 c -0.865125,2.174007 -2.759286,4.282451 -6.970576,5.697675 v -3.674785 c 3.667588,-1.271302 5.886371,-3.415726 7.700576,-5.627713 -0.07276,1.156566 -0.246265,2.38869 -0.73,3.604823 z"
           id="path1984"
           style="fill:none;stroke:#007d44;stroke-width:0.47414"
           sodipodi:nodetypes="ccccc" />
        <path
           d="m 56.746103,44.941328 c -0.679628,1.707863 -2.0061,3.374948 -5.048431,4.661443 v -1.575936 c 1.870067,-0.731935 3.588894,-1.802915 5.069619,-3.159467 -0.01,0.02439 -0.01159,0.04917 -0.02119,0.07396 z"
           class="E"
           id="path1986"
           style="fill:none;stroke:#007d44;stroke-width:0.47414"
           sodipodi:nodetypes="ccccc" />
      </g>
      <path
         d="m 60.59759,46.471688 c -0.107141,1.565541 -0.519715,3.114292 -1.449605,4.544707 -1.428017,2.197195 -4.104948,4.156121 -8.517728,5.4698 v -3.449308 c 3.990611,-1.269703 7.652603,-3.195047 9.967333,-6.565199 z"
         id="path1988"
         style="fill:none;stroke:#007d44;stroke-width:0.47414" />
      <path
         d="m 58.787383,49.773877 c -0.129529,0.252661 -0.221479,0.514118 -0.381391,0.760383 -1.172957,1.805409 -3.332572,3.490085 -6.889021,4.739 v -1.620711 c 2.647348,-0.899506 5.184356,-2.098848 7.270412,-3.878672 z"
         class="E"
         id="path1990"
         style="fill:none;stroke:#007d44;stroke-width:0.47414" />
      <path
         style="fill:none;stroke:#007d44;stroke-width:0.47414"
         d="m 51.394638,60.199358 v -2.127633 l 5.675287,-1.459199 c 0.165509,-0.06077 0.323023,-0.14552 0.486133,-0.212284 -1.338466,1.71466 -3.39094,3.187452 -6.16142,3.799116 z"
         id="path1994" />
      <g
         id="g1116"
         transform="matrix(0.79956142,0,0,0.79956142,11.234267,12.446352)">
        <path
           d="m 45.252,60.901 v 6.916 c 9.559,-0.415 14.922,-5.655 14.569,-9.68 -3.044,3.273 -8.46,2.648 -14.569,2.764 z"
           id="path1982"
           style="fill:#ffe100;stroke:#000000;stroke-width:0.593" />
        <path
           style="fill:none;stroke:#007d44;stroke-width:0.593"
           d="m 55.56,63.405 c -2.061,1.542 -5.184,2.754 -9.152,3.124 v -4.477 c 2.594,-0.016 5.109,0.044 7.401,-0.201 1.481,-0.159 2.888,-0.492 4.167,-1.0665 -0.511,0.8805 -1.302,1.7865 -2.416,2.6205 z"
           id="path1111" />
        <path
           d="m 53.839,63.056 c -1.572,0.951 -3.644,1.736 -6.224,2.13 v -1.931 c 2.121,0.003 4.216,0.008 6.224,-0.199 z"
           class="E"
           id="path1996"
           style="fill:none;stroke:#007d44;stroke-width:0.593" />
      </g>
      <g
         id="g1284"
         transform="translate(-1.4452428,-5.2806947)">
        <path
           d="m 49.718757,46.646792 v 5.755243 c 10.844452,-2.891214 9.537968,-10.497442 9.775438,-13.669302 -2.44346,3.091105 -4.563896,6.361311 -9.775438,7.91326 z"
           id="path1278"
           style="fill:#ffe100;stroke:#000000;stroke-width:0.47414" />
        <path
           d="m 57.671195,45.309126 c -0.865125,2.174007 -2.759286,4.282451 -6.970576,5.697675 v -3.674785 c 3.667588,-1.271302 5.886371,-3.415726 7.700576,-5.627713 -0.07276,1.156566 -0.246265,2.38869 -0.73,3.604823 z"
           id="path1280"
           style="fill:none;stroke:#007d44;stroke-width:0.47414"
           sodipodi:nodetypes="ccccc" />
        <path
           d="m 56.746103,44.941328 c -0.679628,1.707863 -2.0061,3.374948 -5.048431,4.661443 v -1.575936 c 1.870067,-0.731935 3.588894,-1.802915 5.069619,-3.159467 -0.01,0.02439 -0.01159,0.04917 -0.02119,0.07396 z"
           class="E"
           id="path1282"
           style="fill:none;stroke:#007d44;stroke-width:0.47414"
           sodipodi:nodetypes="ccccc" />
      </g>
    </g>
  </g>
  <g
     id="g1791">
    <path
       id="use6"
       d="M 10.543942,11.982832 C 0.41590598,14.054704 0.26579462,21.850413 0.51056575,24.32837 0.64107301,27.553524 1.8817322,32.038941 4.6403084,37.039105 7.3988846,42.03927 11.755475,47.362622 18.248351,50.936168 c 1.109592,0.609968 2.458353,0.589243 3.548341,-0.05545 1.089988,-0.644695 1.758767,-1.81646 1.758767,-3.082324 v -9.28114 C 23.554899,36.843065 22.394897,35.392361 20.761596,35.024365 13.952254,33.491324 9.0394673,27.691873 7.4851426,23.047383 7.2577351,22.407729 5.0570354,15.933897 10.543942,11.982832 Z"
       style="fill:#ffe100;stroke:#000000;stroke-width:0.592666;stroke-miterlimit:10;stroke-dasharray:none" />
    <path
       id="use8"
       d="M 4.0897134,24.1833 C 4.2728716,28.711286 8.4440629,41.452267 19.975752,47.798953 V 38.517254 C 11.729149,36.660466 6.0478824,30.033162 4.0897134,24.1833 Z"
       style="fill:none;stroke:#007d44;stroke-width:0.592604;stroke-miterlimit:10;stroke-dasharray:none" />
    <path
       id="use10"
       d="m 8.879834,34.700617 c 2.122283,3.846884 5.367601,7.781145 9.835094,10.751446 V 39.445928 C 14.361139,38.247278 10.756786,35.844376 8.0222948,32.925886 Z"
       style="fill:none;stroke:#007d44;stroke-width:0.592604;stroke-miterlimit:10"
       sodipodi:nodetypes="ccccc" />
    <path
       id="use12"
       d="m 2.6866203,18.5334 c -1.1252751,2.225345 -1.1146328,4.583997 -1.0059701,5.679586 0.00215,0.02254 0.00364,0.04514 0.00448,0.06777 0.1204252,2.968621 1.2977911,7.32017 3.9846723,12.190947 2.6762391,4.851173 6.8899995,9.991927 13.1448255,13.434966 0.728712,0.400484 1.668589,0.385921 2.384418,-0.03753 0.71583,-0.423448 1.181287,-1.239538 1.181287,-2.070752 v -5.6e-4 -9.280579 -5.6e-4 c 0,-1.082146 -0.821692,-2.10884 -1.876952,-2.34689 C 13.194975,34.52418 8.0715851,28.495081 6.3727503,23.424342 6.2349615,23.03562 5.5796246,21.12114 5.6978093,18.698634 5.7622227,17.387401 6.0926918,15.906451 6.8446488,14.474232 4.6867981,15.581023 3.4382973,17.046289 2.6866203,18.5334 Z"
       style="fill:none;stroke:#007d44;stroke-width:0.592604"
       sodipodi:nodetypes="cccccssccsccccc" />
    <path
       id="use14"
       d="m 3.7827693,19.087356 c -0.9706828,1.919521 -0.9734834,4.058607 -0.8799438,5.004645 l 0.00952,0.138909 c 0.1092229,2.700324 1.220495,6.912404 3.8328807,11.647073 2.589981,4.694901 6.6547498,9.645775 12.6614448,12.952145 0.713029,0.392082 1.745324,-0.217325 1.745885,-1.031735 v -5.6e-4 -9.280019 -5.6e-4 c -0.01345,-0.545777 -0.389142,-1.015625 -0.918592,-1.1488 v 0 C 12.40353,35.605206 7.0600138,29.335256 5.2099474,23.818664 5.0475135,23.359368 4.3412059,21.300938 4.4717132,18.638702 4.4840362,18.39057 4.5148422,18.130676 4.5450884,17.871061 4.2454259,18.270705 3.9900126,18.67791 3.7827693,19.087356 Z"
       style="fill:none;stroke:#007d44;stroke-width:0.592604"
       sodipodi:nodetypes="cccccscccsscccc" />
    <path
       id="use32"
       d="m 21.69307,44.786084 v 11.53841 C -0.26743676,49.837219 -0.58558322,35.632092 0.73349232,29.278404 2.1606704,31.496748 7.2470929,41.100514 21.69307,44.786084 Z"
       style="fill:#ffe100;stroke:#000000;stroke-width:0.592604"
       sodipodi:nodetypes="cccc" />
    <path
       id="use34"
       d="m 1.4683658,32.455668 c -0.157953,2.806746 0.2022023,6.285633 2.0063391,9.783564 2.3894591,4.632727 7.3324921,9.345552 17.1020521,12.533738 V 45.590972 C 13.64643,43.657448 8.7924557,40.404288 5.5566598,37.284437 a 31.170511,31.170511 0 0 1 -4.088294,-4.828769 z"
       style="fill:none;stroke:#007d44;stroke-width:0.592604" />
    <path
       id="use36"
       d="m 4.5635724,41.677994 c 2.1037994,4.078212 6.3209206,8.314937 14.7882086,11.39278 V 46.477637 C 12.712715,44.457855 7.9186732,41.264628 4.7069623,38.167741 4.0269803,37.511844 3.4595818,36.86939 2.8994648,36.232257 c 0.2503723,1.747845 0.7051873,3.586709 1.6641076,5.445737 z"
       style="fill:none;stroke:#007d44;stroke-width:0.592604"
       sodipodi:nodetypes="cccccc" />
    <path
       id="use38"
       d="m 5.7263753,41.078109 c 1.7985356,3.487289 5.2970267,7.17958 12.3169727,10.076505 v -3.73486 C 12.712715,45.659866 8.6003356,43.183029 5.5404164,40.597809 c 0.076176,0.161033 0.1030615,0.319547 0.1859589,0.4803 z"
       style="fill:none;stroke:#007d44;stroke-width:0.592604;stroke-miterlimit:10"
       sodipodi:nodetypes="ccccc" />
    <path
       id="use54"
       d="M 0.66403781,43.645125 C 3.5066316,47.134654 8.6389837,51.138371 23.9425,52.702217 v 9.057092 C 1.9024565,60.956661 0.77662133,48.893422 0.66403781,43.645125 Z"
       style="fill:#ffe100;stroke:#000000;stroke-width:0.592604" />
    <path
       id="use56"
       d="m 2.1332247,46.746493 c 0.3243077,2.165413 1.0384569,4.620405 2.8661187,6.879917 2.6846408,3.319814 7.8052306,6.281712 17.7618706,6.864794 V 53.736753 C 11.273774,52.42664 5.5079296,49.634456 2.1332247,46.746493 Z"
       style="fill:none;stroke:#007d44;stroke-width:0.592604" />
    <path
       id="use58"
       d="m 5.8932901,52.902739 c 2.3289665,2.879562 6.9124039,5.519953 15.7185629,6.268269 V 54.740483 C 13.165289,53.67234 7.6739021,51.75842 4.0600272,49.575924 c 0.4245687,1.124995 0.9650816,2.253071 1.8332629,3.326815 z"
       style="fill:none;stroke:#007d44;stroke-width:0.592604"
       sodipodi:nodetypes="ccccc" />
    <path
       id="use60"
       d="m 7.8929078,52.904419 c 2.0802745,2.079715 5.7675252,3.955547 12.3304152,4.731309 V 55.953136 C 15.111136,55.225544 11.074372,54.165243 7.8929078,52.904419 Z"
       style="fill:none;stroke:#007d44;stroke-width:0.592604;stroke-miterlimit:10" />
    <path
       d="m 5.9420203,59.631985 c 4.5509507,0.683343 9.1237457,2.028744 17.6778527,2.169893 v 7.092201 C 11.553833,69.752739 8.516318,64.839953 5.9420203,59.631985 Z"
       class="B D"
       id="path76"
       style="stroke-width:0.592604" />
    <path
       id="use78"
       d="m 11.854055,65.613474 c 2.181656,1.493272 5.442657,2.401222 10.644464,2.179415 V 62.86442 C 15.905381,62.661658 11.767237,61.815881 8.0939898,61.146821 c 0.9852458,1.72264 2.0769142,3.314493 3.7600652,4.466653 z"
       style="fill:none;stroke:#007d44;stroke-width:0.592604"
       sodipodi:nodetypes="ccccc" />
    <path
       id="use80"
       d="m 12.516114,64.646712 c 1.781172,1.218815 4.481496,2.036026 8.81288,1.996257 v -2.670638 c -4.577836,-0.207803 -7.910532,-0.682222 -10.792054,-1.208452 0.578321,0.703787 1.205652,1.353523 1.979174,1.882833 z"
       style="fill:none;stroke:#007d44;stroke-width:0.592604"
       sodipodi:nodetypes="scccs" />
    <path
       d="m 20.842813,65.624677 v -0.548355 c -2.108841,-0.124346 -4.012678,-0.292941 -5.685188,-0.519509 1.335319,0.595125 3.152899,0.998969 5.685188,1.067864 z"
       class="O"
       id="path82"
       style="fill:none;stroke:#007d44;stroke-width:0.592604"
       sodipodi:nodetypes="cccc" />
    <path
       d="m 23.852,42.774 v 7.198 C 10.289,46.356 11.923,36.843 11.626,32.876 c 3.056,3.866 5.708,7.956 12.226,9.897 z"
       id="path102"
       style="fill:#ffe100;stroke:#000000;stroke-width:0.593" />
    <path
       d="m 23.852,49.973 v 6.674 C 10.547,53.311 7.99,45.306 9.343,38.391 c 2.345,6.523 7.991,9.64 14.509,11.582 z"
       id="path104"
       style="fill:#ffe100;stroke:#000000;stroke-width:0.593" />
    <path
       d="m 24.017,55.239 v 7.119 C 14.478,61.768 9.125,54.322 9.477,48.603 c 3.038,4.65 8.007,5.172 14.54,6.635 z"
       id="path106"
       style="fill:#ffe100;stroke:#000000;stroke-width:0.593" />
    <path
       d="m 26.732,60.901 v 6.916 c -9.559,-0.415 -14.922,-5.655 -14.569,-9.68 3.044,3.273 8.46,2.648 14.569,2.764 z"
       id="path108"
       style="fill:#ffe100;stroke:#000000;stroke-width:0.593" />
    <path
       d="m 13.906,41.101 c 1.082,2.719 3.451,5.356 8.718,7.126 v -4.596 c -4.587,-1.59 -7.362,-4.272 -9.631,-7.0385 0.091,1.4465 0.308,2.9875 0.913,4.5085 z"
       id="path112"
       style="fill:none;stroke:#007d44;stroke-width:0.593"
       sodipodi:nodetypes="ccccc" />
    <path
       d="m 15.063,40.641 c 0.85,2.136 2.509,4.221 6.314,5.83 V 44.5 C 19.038134,43.584579 16.888422,42.24512 15.0365,40.5485 15.049,40.579 15.051,40.61 15.063,40.641 Z"
       class="E"
       id="path114"
       style="fill:none;stroke:#007d44;stroke-width:0.593"
       sodipodi:nodetypes="ccccc" />
    <path
       d="m 10.246,42.555 c 0.134,1.958 0.65,3.895 1.813,5.684 1.786,2.748 5.134,5.198 10.653,6.841 V 50.766 C 17.721,49.178 13.141,46.77 10.246,42.555 Z"
       id="path116"
       style="fill:none;stroke:#007d44;stroke-width:0.593" />
    <path
       d="m 12.51,46.685 c 0.162,0.316 0.277,0.643 0.477,0.951 1.467,2.258 4.168,4.365 8.616,5.927 V 51.536 C 18.292,50.411 15.119,48.911 12.51,46.685 Z"
       class="E"
       id="path118"
       style="fill:none;stroke:#007d44;stroke-width:0.593" />
    <path
       d="M 22.851,60.999 V 56.18 c -2.855,-0.617 -5.485,-1.113 -7.815,-1.968 -1.38,-0.506 -2.662,-1.179 -3.8215,-2.067 1.3825,3.978 5.3845,8 11.6365,8.854 z"
       id="path120"
       style="fill:none;stroke:#007d44;stroke-width:0.593"
       sodipodi:nodetypes="ccccc" />
    <path
       d="m 21.756,59.724 v -2.661 l -7.098,-1.825 c -0.207,-0.076 -0.404,-0.182 -0.608,-0.2655 1.674,2.1445 4.241,3.9865 7.706,4.7515 z m -5.332,3.681 c 2.061,1.542 5.184,2.754 9.152,3.124 v -4.477 c -2.594,-0.016 -5.109,0.044 -7.401,-0.201 -1.481,-0.159 -2.888,-0.492 -4.167,-1.0665 0.511,0.8805 1.302,1.7865 2.416,2.6205 z"
       id="path122"
       style="fill:none;stroke:#007d44;stroke-width:0.593"
       sodipodi:nodetypes="ccccccccccc" />
    <path
       d="m 18.145,63.056 c 1.572,0.951 3.644,1.736 6.224,2.13 v -1.931 c -2.121,0.003 -4.216,0.008 -6.224,-0.199 z"
       class="E"
       id="path124"
       style="fill:none;stroke:#007d44;stroke-width:0.593" />
  </g>
  <path
     d="M20.955 11.737h11.486L35.992.815l3.549 10.922 11.486.003-9.29 6.75 3.549 10.923-9.294-6.748-9.294 6.748 3.549-10.923z"
     fill="#d2691e"
     stroke-width=".503"
     class="B"
     id="path4" />
  <g
     id="g1761">
    <path
       d="m 22.966777,29.330775 -0.09634,0.224047 c -0.835694,1.942486 -1.202571,3.836241 -3.49513,5.002405 l -0.202762,0.103062 v 29.281796 l 0.0017,0.01232 c 0.352874,5.26846 3.227955,7.703289 6.616102,9.267696 3.388148,1.564406 7.295524,2.376576 9.970083,4.509502 l 0.230768,0.184278 0.230768,-0.184278 c 2.674559,-2.132926 6.581935,-2.945096 9.970083,-4.509502 3.388148,-1.564407 6.263228,-3.999236 6.616102,-9.267696 l 0.0017,-0.01232 V 34.660289 l -0.202762,-0.103062 c -2.292559,-1.166164 -2.659436,-3.059919 -3.49513,-5.002405 l -0.09634,-0.224047 H 35.991737 Z"
       id="path156"
       style="stroke-width:0.560117"
       sodipodi:nodetypes="ccccccscccscccccccc" />
    <path
       d="m 20.410963,66.712424 h 31.158748 c -0.956119,3.076162 -3.103608,4.64337 -5.688548,5.836979 -3.192107,1.473668 -7.03675,2.280236 -9.890546,4.440047 -2.853796,-2.159811 -6.698439,-2.965819 -9.890546,-4.440047 -2.5855,-1.193609 -4.732989,-2.760817 -5.689108,-5.836979 z"
       fill="#0251a1"
       id="path164"
       style="stroke-width:0.560117" />
    <path
       d="m 27.810668,30.07181 h 8.179949 8.180509 V 65.970829 H 27.810668 Z"
       fill="#d2691e"
       id="path158"
       style="stroke-width:0.560117" />
    <path
       d="m 23.46192,30.07181 h 3.608274 v 35.899019 h -6.859193 c -0.14507,-0.627331 -0.246452,-1.310674 -0.297422,-2.05955 v -28.81746 c 2.272394,-1.261383 2.82579,-3.273324 3.548341,-5.022009 z"
       class="D"
       id="path160"
       style="stroke-width:0.560117" />
    <path
       d="m 44.9116,30.07181 h 3.608274 c 0.722551,1.748685 1.275387,3.761186 3.547781,5.022009 v 28.81746 c -0.05041,0.749436 -0.152352,1.432219 -0.297422,2.05955 H 44.9116 Z"
       fill="#6d360f"
       id="path162"
       style="stroke-width:0.560117" />
    <path
       d="m 35.844987,31.721355 c 1.324116,3.937062 1.951447,8.482412 1.036776,14.928798 -0.617249,3.842963 0.518108,8.246043 2.973661,9.345552 l -2.769778,1.422137 c 0.679422,0.703507 0.323187,1.392451 0.07506,1.684272 l -0.03753,1.892075 c -0.0034,0.18876 0.09018,0.233009 0.19156,0.248132 1.855107,0.270537 1.936324,1.329158 1.230577,2.313283 -1.054701,0.644135 -2.195659,0.90907 -2.900286,-0.851377 -0.443613,-1.107912 0.05265,-1.645624 -0.112024,-2.788263 -0.06217,-0.43073 -0.850257,-0.830653 -0.24309,-1.562726 -0.695666,-0.581962 -1.988976,0.879383 -3.068881,1.609216 0.583081,-2.139087 3.358461,-2.759137 3.124892,-6.493437 -0.05209,-4.000355 -0.755037,-8.793836 -0.636293,-12.097967 0.43073,-3.883851 1.091108,-6.001653 1.135358,-9.650255 z"
       id="path166"
       style="stroke-width:0.560117" />
    <g
       id="g1684">
      <path
         d="m 30.132353,67.319591 0.277818,2.381617 -0.343912,2.738972 3.122653,-2.289198 z"
         class="B K M"
         id="path168" />
      <path
         d="m 24.773714,69.330971 1.654025,0.860339 -0.91299,0.939317 3.731499,-1.045179 -1.693794,-0.449774 z"
         id="path170"
         style="stroke-width:0.560117" />
      <use
         xlink:href="#Q"
         class="B K N"
         id="use172"
         x="0"
         y="0"
         width="100%"
         height="100%"
         transform="matrix(0.560117,0,0,0.560117,-22.821668,-72.449205)" />
      <use
         xlink:href="#R"
         id="use174"
         x="0"
         y="0"
         width="100%"
         height="100%"
         transform="matrix(0.560117,0,0,0.560117,-22.821668,-72.449205)" />
      <path
         d="m 29.325225,70.029997 1.609216,0.08402 0.04705,-0.346152 z"
         id="path176"
         style="stroke-width:0.560117" />
      <circle
         cx="32.487648"
         cy="69.725853"
         r="0.14058936"
         class="G I"
         id="circle178"
         style="stroke-width:0.560117" />
      <path
         d="m 36.907529,70.230519 0.277818,2.381617 -0.343912,2.738972 3.122652,-2.289198 z"
         class="B K M"
         id="path180" />
      <path
         d="m 31.548329,72.241899 1.654026,0.86034 -0.912991,0.939316 3.731499,-1.045179 -1.693793,-0.449774 z"
         id="path182"
         style="stroke-width:0.560117" />
      <use
         xlink:href="#Q"
         x="12.095"
         y="5.197"
         class="B K N"
         id="use184"
         width="100%"
         height="100%"
         transform="matrix(0.560117,0,0,0.560117,-22.821668,-72.449205)" />
      <use
         xlink:href="#R"
         x="12.096"
         y="5.197"
         id="use186"
         width="100%"
         height="100%"
         transform="matrix(0.560117,0,0,0.560117,-22.821668,-72.449205)" />
      <path
         d="m 36.09984,72.940925 1.609216,0.08402 0.04705,-0.346152 z"
         id="path188"
         style="stroke-width:0.560117" />
      <circle
         cx="39.26226"
         cy="72.636787"
         r="0.14058936"
         class="G I"
         id="circle190"
         style="stroke-width:0.560117" />
      <path
         d="m 43.531472,67.311749 0.277818,2.381617 -0.343912,2.738973 3.122653,-2.289199 z"
         class="B K M"
         id="path192" />
      <path
         d="m 38.172833,69.322569 1.654025,0.86034 -0.91299,0.939316 3.731499,-1.045178 -1.693794,-0.449774 z"
         id="path194"
         style="stroke-width:0.560117" />
      <use
         xlink:href="#Q"
         x="23.922001"
         y="-0.014"
         class="B K N"
         id="use196"
         width="100%"
         height="100%"
         transform="matrix(0.560117,0,0,0.560117,-22.821668,-72.449205)" />
      <use
         xlink:href="#R"
         x="23.922001"
         y="-0.015"
         id="use198"
         width="100%"
         height="100%"
         transform="matrix(0.560117,0,0,0.560117,-22.821668,-72.449205)" />
      <path
         d="m 42.724344,70.021595 1.609216,0.08402 0.04705,-0.346153 z"
         id="path200"
         style="stroke-width:0.560117" />
      <circle
         cx="45.886765"
         cy="69.717445"
         r="0.14058936"
         class="G I"
         id="circle202"
         style="stroke-width:0.560117" />
    </g>
  </g>
  <defs
     id="defs407">
    <path
       id="B"
       d="M59.569 150.74c-18.082 3.699-18.35 17.617-17.913 22.041.233 5.758 2.448 13.766 7.373 22.693s12.703 18.431 24.295 24.811c1.981 1.089 4.389 1.052 6.335-.099s3.14-3.243 3.14-5.503v-16.57c-.001-2.989-2.072-5.579-4.988-6.236-12.157-2.737-20.928-13.091-23.703-21.383-.406-1.142-4.335-12.7 5.461-19.754z" />
    <path
       id="C"
       d="M48.046 172.522c.327 8.084 7.774 30.831 28.362 42.162v-16.571c-14.723-3.315-24.866-15.147-28.362-25.591z" />
    <path
       id="D"
       d="M55.067 188.131l1.531 3.168c3.789 6.868 9.583 13.892 17.559 19.195v-10.723c-7.773-2.14-14.208-6.43-19.09-11.641z" />
    <path
       id="E"
       d="M52.965 155.189c-3.853 1.975-6.082 4.591-7.424 7.246-2.009 3.973-1.99 8.184-1.796 10.14a2.1 2.1 0 0 1 .008.121c.215 5.3 2.317 13.069 7.114 21.765 4.778 8.661 12.301 17.839 23.468 23.986 1.301.715 2.979.689 4.257-.067s2.109-2.213 2.109-3.697v-.001-16.569-.001c0-1.932-1.467-3.765-3.351-4.19-13.048-2.938-22.195-13.702-25.228-22.755-.246-.694-1.416-4.112-1.205-8.437.115-2.341.705-4.985 2.047-7.543z" />
    <path
       id="F"
       d="M48.859 161.253c-.535.713-.991 1.44-1.361 2.171-1.733 3.427-1.738 7.246-1.571 8.935l.017.248c.195 4.821 2.179 12.341 6.843 20.794 4.624 8.382 11.881 17.221 22.605 23.124 1.273.7 3.116-.388 3.117-1.842v-.001-16.568-.001a2.17 2.17 0 0 0-1.64-2.051h0c-13.98-3.148-23.52-14.342-26.823-24.191-.29-.82-1.551-4.495-1.318-9.248.022-.443.077-.907.131-1.371z" />
    <path
       id="G"
       d="M42.054 181.618c2.548 3.961 11.629 21.107 37.42 27.687v20.6c-39.207-11.582-39.775-36.943-37.42-48.286z" />
    <path
       id="H"
       d="M43.366 187.291c-.282 5.011.361 11.222 3.582 17.467 4.266 8.271 13.091 16.685 30.533 22.377v-16.393c-12.373-3.452-21.039-9.26-26.816-14.83a55.65 55.65 0 0 1-7.299-8.621z" />
    <path
       id="I"
       d="M45.921 194.033c.447 3.121 1.259 6.404 2.971 9.723 3.756 7.281 11.285 14.845 26.402 20.34v-11.771c-11.853-3.606-20.412-9.307-26.146-14.836-1.214-1.171-2.227-2.318-3.227-3.455z" />
    <path
       id="J"
       d="M50.636 201.828c.136.287.184.57.332.857 3.211 6.226 9.457 12.818 21.99 17.99v-6.668c-9.517-3.142-16.859-7.564-22.322-12.18z" />
    <path
       id="K"
       d="M41.93 207.268c5.075 6.23 14.238 13.378 41.56 16.17v16.17c-39.349-1.433-41.359-22.97-41.56-32.34z" />
    <path
       id="L"
       d="M44.553 212.805c.579 3.866 1.854 8.249 5.117 12.283 4.793 5.927 13.935 11.215 31.711 12.256v-12.059c-20.509-2.339-30.803-7.324-36.828-12.48z" />
    <path
       id="M"
       d="M47.993 217.857c.758 2.008 1.723 4.022 3.273 5.939 4.158 5.141 12.341 9.855 28.063 11.191v-7.91c-15.08-1.907-24.884-5.324-31.336-9.221z" />
    <path
       id="N"
       d="M54.836 223.799c3.714 3.713 10.297 7.062 22.014 8.447v-3.004c-9.127-1.299-16.334-3.192-22.014-5.443z" />
    <path
       id="O"
       d="M55.195 238.514c1.759 3.076 3.708 5.918 6.713 7.975 3.895 2.666 9.717 4.287 19.004 3.891v-8.799c-11.771-.362-19.159-1.872-25.717-3.066z" />
    <path
       id="P"
       d="M59.557 241.402c1.032 1.256 2.152 2.416 3.533 3.361 3.18 2.176 8.001 3.635 15.734 3.564v-4.768c-8.173-.371-14.123-1.218-19.268-2.158z" />
    <path
       id="Q"
       d="M89.486 254.425c3.673 2.717 7.964 3.521 11.245-.283-2.401-2.608-7.081-4.913-11.245.283z" />
    <path
       id="R"
       d="M97.493 251.96c-.468 1.014-.453 2.085.192 3.232-.304-1.335.206-2.121.777-2.865z" />
    <path
       id="S"
       d="M297.551 239.311l-1.229.592c5.178 10.769 11.98 21.049 31.367 24.432 15.5 3.216 22.471 5.784 26.81 7.507 1.367.543 5.134 3.65 6.121 5.388 1.827-.277 1.511-.678 1.822-1.043-.935-1.646-2.879-3.776-7.31-5.871s-11.627-4.095-27.187-7.323l-.012-.002-.01-.002c-18.986-3.312-25.247-13.016-30.373-23.678z" />
    <path
       id="T"
       d="M338.697 261.122c3.765 1.181 7.497 2.626 7.14 6.877-4.671-1.074-4.442-3.512-7.14-6.877z" />
    <path
       id="U"
       d="M332.748 258.966c3.601 1.319 7.136 2.901 6.245 7.135-4.517-1.246-3.981-3.674-6.245-7.135z" />
    <path
       id="V"
       d="M326.937 256.581c3.444 1.419 6.804 3.121 5.625 7.677-4.349-1.34-3.648-3.952-5.625-7.677z" />
    <path
       id="W"
       d="M321.541 254.842c3.353 1.622 6.606 3.522 5.156 7.999-4.261-1.598-3.406-4.163-5.156-7.999z" />
    <path
       id="X"
       d="M311.761 249.942c2.989 1.965 5.685 3.737 4.552 8.123-.044.17.297 1.799.216 1.968-.164-.087-1.021-1.662-1.168-1.75-3.457-2.078-2.417-4.473-3.601-8.34z" />
    <path
       id="Y"
       d="M307.918 246.435c2.513 2.545 4.78 4.842 2.756 8.894-.078.157-.085 1.821-.199 1.97-.142-.12-.651-1.838-.777-1.955-2.947-2.754-1.43-4.879-1.781-8.908z" />
    <path
       id="Z"
       d="M303.762 242.166c2.489 2.569 4.734 4.886 2.673 8.92-.08.156-.102 1.82-.217 1.968-.141-.121-.634-1.844-.758-1.963-2.921-2.781-1.384-4.892-1.697-8.925z" />
    <path
       id="a"
       d="M301.756 238.815c1.875 2.686 3.566 5.11.802 8.305-.107.124-.456 1.584-.595 1.694-.111-.131-.244-1.731-.339-1.856-2.246-2.948-.361-4.541.132-8.142z" />
    <path
       id="b"
       d="M297.237 239.975c.835-3.8 3.149-7.557-1.837-11.526.719 4.485-3.653 5.529 1.837 11.526z" />
    <path
       id="c"
       d="M337.627 271.481c4.591.714 6.699-1.16 8.363-3.496-4.272-1.214-6.138.9-8.363 3.496z" />
    <path
       id="d"
       d="M325.313 268.585c4.426.806 6.558-.796 8.279-2.828-4.094-1.241-6.001.584-8.279 2.828z" />
    <path
       id="e"
       d="M320.839 267.63c5.544.177 6.757-1.257 8.312-3.195-4.213-1.537-6.089.815-8.312 3.195z" />
    <path
       id="f"
       d="M322.626 263.733c-2.992-1.699-5.333-.196-7.512 2.102 2.549-.028 5.004 2.188 7.725-1.961l1.488-.803" />
    <path
       id="g"
       d="M318.058 261.987c-2.916-1.826-5.319-.425-7.596 1.778 2.548.081 4.906 2.401 7.802-1.627l1.521-.739" />
    <path
       id="h"
       d="M313.67 260.091c-2.65-2.194-5.217-1.121-7.764.763 2.515.416 4.547 3.025 7.948-.586l1.605-.532" />
    <path
       id="i"
       d="M309.543 257.769c-2.409-2.456-5.073-1.656-7.801-.046 2.458.674 4.209 3.48 7.966.241l1.652-.363" />
    <path
       id="j"
       d="M305.798 255.059c-2.141-2.692-4.874-2.172-7.754-.853 2.375.925 3.826 3.897 7.899 1.064l1.681-.19" />
    <path
       id="k"
       d="M302.105 251.733c-1.612-3.039-4.395-3.027-7.467-2.258 2.166 1.344 3.048 4.532 7.57 2.491l2.726.263" />
    <path
       id="l"
       d="M299.897 247.929c-.832-3.338-3.534-3.998-6.702-3.993 1.778 1.827 1.865 5.133 6.746 4.245l2.582.913" />
    <path
       id="m"
       d="M297.428 242.744c-.087-3.439-2.582-4.67-5.675-5.353 1.339 2.169.706 5.416 5.663 5.608l2.323 1.452" />
    <path
       id="n"
       d="M297.562 270.82c18.114-7.802 31.045.341 45.9 2.858-16.206 7.544-26.319-1.047-45.9-2.858z" />
    <path
       id="o"
       d="M26.473 81.5a1.01 1.01 0 0 0-1.142.849c-.011.072-.012.143-.008.212a1 1 0 0 0-.192-.049 1.01 1.01 0 0 0-1.142.849 1.01 1.01 0 0 0 .848 1.141 1 1 0 0 0 .383-.019.99.99 0 0 0-.055.208 1.01 1.01 0 0 0 .848 1.141 1.01 1.01 0 0 0 1.142-.848c.024-.163.003-.322-.048-.469.079.035.162.063.252.076a1.01 1.01 0 0 0 1.142-.849 1.01 1.01 0 0 0-.849-1.142.97.97 0 0 0-.33.011 1.01 1.01 0 0 0-.85-1.113zm-.059.398a.6.6 0 0 1-.176 1.194.6.6 0 1 1 .176-1.194zm1.18 1.104a.6.6 0 0 1-.176 1.192.6.6 0 0 1-.507-.685c.049-.332.351-.556.683-.507zm-2.522-.089c.332.049.556.351.507.683a.6.6 0 1 1-1.192-.176.6.6 0 0 1 .685-.507zm1.176 1.328a.6.6 0 1 1-.176 1.194.6.6 0 1 1 .176-1.194z" />
    <path
       id="p"
       d="M45.509 81.5a1.01 1.01 0 0 1 1.142.849c.011.072.012.143.008.212a1 1 0 0 1 .192-.049 1.01 1.01 0 0 1 1.142.849 1.01 1.01 0 0 1-.848 1.141 1 1 0 0 1-.383-.019.99.99 0 0 1 .055.208 1.01 1.01 0 0 1-.848 1.141 1.01 1.01 0 0 1-1.142-.848c-.024-.163-.003-.322.048-.469-.079.035-.162.063-.252.076a1.01 1.01 0 0 1-1.142-.849 1.01 1.01 0 0 1 .849-1.142.97.97 0 0 1 .33.011 1.01 1.01 0 0 1 .85-1.113zm.059.398a.6.6 0 0 0 .176 1.194.6.6 0 1 0-.176-1.194zm-1.18 1.104a.6.6 0 0 0 .176 1.192.6.6 0 0 0 .507-.685c-.049-.332-.351-.556-.683-.507zm2.522-.089c-.332.049-.556.351-.507.683a.6.6 0 1 0 1.192-.176.6.6 0 0 0-.685-.507zm-1.176 1.328a.6.6 0 1 0 .176 1.194.6.6 0 1 0-.176-1.194z" />
  </defs>
  <g
     id="g1095"
     transform="matrix(-1,0,0,1,71.98137,0)">
    <use
       xlink:href="#S"
       id="use206"
       x="0"
       y="0"
       width="100%"
       height="100%"
       transform="matrix(0.560117,0,0,0.560117,-162.57059,-72.449205)" />
    <use
       xlink:href="#T"
       id="use208"
       x="0"
       y="0"
       width="100%"
       height="100%"
       style="fill:#f6ae45;stroke:#000000;stroke-width:0.794"
       transform="matrix(0.560117,0,0,0.560117,-162.57059,-72.449205)" />
    <use
       xlink:href="#U"
       id="use210"
       x="0"
       y="0"
       width="100%"
       height="100%"
       style="fill:#f6ae45;stroke:#000000;stroke-width:0.794"
       transform="matrix(0.560117,0,0,0.560117,-162.57059,-72.449205)" />
    <use
       xlink:href="#V"
       id="use212"
       x="0"
       y="0"
       width="100%"
       height="100%"
       style="fill:#f6ae45;stroke:#000000;stroke-width:0.794"
       transform="matrix(0.560117,0,0,0.560117,-162.57059,-72.449205)" />
    <use
       xlink:href="#W"
       id="use214"
       x="0"
       y="0"
       width="100%"
       height="100%"
       style="fill:#f6ae45;stroke:#000000;stroke-width:0.794"
       transform="matrix(0.560117,0,0,0.560117,-162.57059,-72.449205)" />
    <path
       d="m 14.975297,69.367378 c 1.854547,0.95612 3.648602,2.066272 2.773139,4.552071 -2.363134,-0.954999 -1.847826,-2.379377 -2.773139,-4.552071 z"
       id="path216"
       style="fill:#f6ae45;stroke:#000000;stroke-width:0.444733" />
    <use
       xlink:href="#X"
       id="use218"
       x="0"
       y="0"
       width="100%"
       height="100%"
       style="fill:#f6ae45;stroke:#000000;stroke-width:0.794"
       transform="matrix(0.560117,0,0,0.560117,-162.57059,-72.449205)" />
    <use
       xlink:href="#Y"
       id="use220"
       x="0"
       y="0"
       width="100%"
       height="100%"
       style="fill:#f6ae45;stroke:#000000;stroke-width:0.794"
       transform="matrix(0.560117,0,0,0.560117,-162.57059,-72.449205)" />
    <use
       xlink:href="#Z"
       id="use222"
       x="0"
       y="0"
       width="100%"
       height="100%"
       style="fill:#f6ae45;stroke:#000000;stroke-width:0.794"
       transform="matrix(0.560117,0,0,0.560117,-162.57059,-72.449205)" />
    <use
       xlink:href="#a"
       id="use224"
       x="0"
       y="0"
       width="100%"
       height="100%"
       style="fill:#f6ae45;stroke:#000000;stroke-width:0.794"
       transform="matrix(0.560117,0,0,0.560117,-162.57059,-72.449205)" />
    <path
       d="m 4.9660059,58.731317 c 1.2569025,1.299471 2.3905793,2.471236 0.9281138,4.254088 C 5.8375479,63.0543 5.7109615,63.825581 5.6342255,63.888874 5.5614102,63.826701 5.3956156,63.005569 5.3323224,62.945637 3.8407308,61.529101 4.8702259,60.61555 4.966566,58.731317 Z"
       id="path226"
       style="fill:#f6ae45;stroke:#000000;stroke-width:0.444733" />
    <use
       xlink:href="#b"
       class="C"
       id="use230"
       x="0"
       y="0"
       width="100%"
       height="100%"
       style="fill:#f6ae45;stroke:#000000"
       transform="matrix(0.560117,0,0,0.560117,-162.57059,-72.449205)" />
    <use
       xlink:href="#c"
       id="use232"
       x="0"
       y="0"
       width="100%"
       height="100%"
       style="fill:#f6ae45;stroke:#000000;stroke-width:0.926"
       transform="matrix(0.560117,0,0,0.560117,-162.57059,-72.449205)" />
    <path
       d="m 22.883589,79.038919 c 2.565335,0.435771 3.760625,-0.597645 4.710584,-1.893756 -2.383298,-0.712469 -3.44472,0.456495 -4.710584,1.893756 z"
       id="path234"
       style="fill:#f6ae45;stroke:#000000;stroke-width:0.518668" />
    <use
       xlink:href="#d"
       id="use238"
       x="0"
       y="0"
       width="100%"
       height="100%"
       style="fill:#f6ae45;stroke:#000000;stroke-width:0.864"
       transform="matrix(0.560117,0,0,0.560117,-162.57059,-72.449205)" />
    <use
       xlink:href="#e"
       id="use240"
       x="0"
       y="0"
       width="100%"
       height="100%"
       style="fill:#f6ae45;stroke:#000000;stroke-width:0.864"
       transform="matrix(0.560117,0,0,0.560117,-162.57059,-72.449205)" />
    <use
       xlink:href="#f"
       id="use244"
       x="0"
       y="0"
       width="100%"
       height="100%"
       style="fill:#f6ae45;stroke:#000000;stroke-width:0.926"
       transform="matrix(0.560117,0,0,0.560117,-162.57059,-72.449205)" />
    <use
       xlink:href="#g"
       id="use246"
       x="0"
       y="0"
       width="100%"
       height="100%"
       style="fill:#f6ae45;stroke:#000000;stroke-width:0.926"
       transform="matrix(0.560117,0,0,0.560117,-162.57059,-72.449205)" />
    <use
       xlink:href="#h"
       id="use248"
       x="0"
       y="0"
       width="100%"
       height="100%"
       style="fill:#f6ae45;stroke:#000000;stroke-width:0.926"
       transform="matrix(0.560117,0,0,0.560117,-162.57059,-72.449205)" />
    <use
       xlink:href="#i"
       id="use250"
       x="0"
       y="0"
       width="100%"
       height="100%"
       style="fill:#f6ae45;stroke:#000000;stroke-width:0.926"
       transform="matrix(0.560117,0,0,0.560117,-162.57059,-72.449205)" />
    <use
       xlink:href="#j"
       id="use252"
       x="0"
       y="0"
       width="100%"
       height="100%"
       style="fill:#f6ae45;stroke:#000000;stroke-width:0.926"
       transform="matrix(0.560117,0,0,0.560117,-162.57059,-72.449205)" />
    <use
       xlink:href="#k"
       id="use254"
       x="0"
       y="0"
       width="100%"
       height="100%"
       style="fill:#f6ae45;stroke:#000000;stroke-width:0.926"
       transform="matrix(0.560117,0,0,0.560117,-162.57059,-72.449205)" />
    <use
       xlink:href="#l"
       id="use256"
       x="0"
       y="0"
       width="100%"
       height="100%"
       style="fill:#f6ae45;stroke:#000000;stroke-width:0.926"
       transform="matrix(0.560117,0,0,0.560117,-162.57059,-72.449205)" />
    <use
       xlink:href="#m"
       id="use258"
       x="0"
       y="0"
       width="100%"
       height="100%"
       style="fill:#f6ae45;stroke:#000000;stroke-width:0.926"
       transform="matrix(0.560117,0,0,0.560117,-162.57059,-72.449205)" />
    <use
       xlink:href="#n"
       fill="#137d7a"
       class="B C"
       id="use266"
       x="0"
       y="0"
       width="100%"
       height="100%"
       transform="matrix(0.560117,0,0,0.560117,-162.57059,-72.449205)" />
    <use
       xlink:href="#S"
       id="use268"
       x="0"
       y="0"
       width="100%"
       height="100%"
       transform="matrix(-0.560117,0,0,0.560117,234.55196,-72.449205)" />
    <use
       xlink:href="#T"
       id="use270"
       x="0"
       y="0"
       width="100%"
       height="100%"
       style="fill:#f6ae45;stroke:#000000;stroke-width:0.794"
       transform="matrix(-0.560117,0,0,0.560117,234.55196,-72.449205)" />
    <use
       xlink:href="#U"
       id="use272"
       x="0"
       y="0"
       width="100%"
       height="100%"
       style="fill:#f6ae45;stroke:#000000;stroke-width:0.794"
       transform="matrix(-0.560117,0,0,0.560117,234.55196,-72.449205)" />
    <use
       xlink:href="#V"
       id="use274"
       x="0"
       y="0"
       width="100%"
       height="100%"
       style="fill:#f6ae45;stroke:#000000;stroke-width:0.794"
       transform="matrix(-0.560117,0,0,0.560117,234.55196,-72.449205)" />
    <use
       xlink:href="#W"
       id="use276"
       x="0"
       y="0"
       width="100%"
       height="100%"
       style="fill:#f6ae45;stroke:#000000;stroke-width:0.794"
       transform="matrix(-0.560117,0,0,0.560117,234.55196,-72.449205)" />
    <path
       d="m 57.301255,69.263197 c -1.854547,0.956119 -3.648602,2.066271 -2.773139,4.55207 2.363133,-0.954999 1.847826,-2.379377 2.773139,-4.55207 z"
       id="path278"
       style="fill:#f6ae45;stroke:#000000;stroke-width:0.444733" />
    <use
       xlink:href="#X"
       x="-0.40099999"
       y="-0.147"
       id="use280"
       width="100%"
       height="100%"
       style="fill:#f6ae45;stroke:#000000;stroke-width:0.794"
       transform="matrix(-0.560117,0,0,0.560117,234.55196,-72.449205)" />
    <use
       xlink:href="#Y"
       x="-0.373"
       y="-0.55199999"
       id="use282"
       width="100%"
       height="100%"
       style="fill:#f6ae45;stroke:#000000;stroke-width:0.794"
       transform="matrix(-0.560117,0,0,0.560117,234.55196,-72.449205)" />
    <use
       xlink:href="#Z"
       x="-0.35800001"
       y="-0.59600002"
       id="use284"
       width="100%"
       height="100%"
       style="fill:#f6ae45;stroke:#000000;stroke-width:0.794"
       transform="matrix(-0.560117,0,0,0.560117,234.55196,-72.449205)" />
    <use
       xlink:href="#a"
       x="-1.082"
       y="-2.28"
       id="use286"
       width="100%"
       height="100%"
       style="fill:#f6ae45;stroke:#000000;stroke-width:0.794"
       transform="matrix(-0.560117,0,0,0.560117,234.55196,-72.449205)" />
    <use
       xlink:href="#b"
       class="C"
       id="use290"
       x="0"
       y="0"
       width="100%"
       height="100%"
       style="fill:#f6ae45;stroke:#000000"
       transform="matrix(-0.560117,0,0,0.560117,234.55196,-72.449205)" />
    <use
       xlink:href="#c"
       id="use292"
       x="0"
       y="0"
       width="100%"
       height="100%"
       style="fill:#f6ae45;stroke:#000000;stroke-width:0.926"
       transform="matrix(-0.560117,0,0,0.560117,234.55196,-72.449205)" />
    <path
       d="m 49.097781,79.038919 c -2.565335,0.435771 -3.760625,-0.597645 -4.710584,-1.893756 2.383298,-0.712469 3.44472,0.456495 4.710584,1.893756 z"
       id="path294"
       style="fill:#f6ae45;stroke:#000000;stroke-width:0.518668" />
    <use
       xlink:href="#d"
       id="use298"
       x="0"
       y="0"
       width="100%"
       height="100%"
       style="fill:#f6ae45;stroke:#000000;stroke-width:0.864"
       transform="matrix(-0.560117,0,0,0.560117,234.55196,-72.449205)" />
    <use
       xlink:href="#e"
       id="use300"
       x="0"
       y="0"
       width="100%"
       height="100%"
       style="fill:#f6ae45;stroke:#000000;stroke-width:0.864"
       transform="matrix(-0.560117,0,0,0.560117,234.55196,-72.449205)" />
    <use
       xlink:href="#f"
       id="use304"
       x="0"
       y="0"
       width="100%"
       height="100%"
       style="fill:#f6ae45;stroke:#000000;stroke-width:0.926"
       transform="matrix(-0.560117,0,0,0.560117,234.55196,-72.449205)" />
    <use
       xlink:href="#g"
       id="use306"
       x="0"
       y="0"
       width="100%"
       height="100%"
       style="fill:#f6ae45;stroke:#000000;stroke-width:0.926"
       transform="matrix(-0.560117,0,0,0.560117,234.55196,-72.449205)" />
    <use
       xlink:href="#h"
       id="use308"
       x="0"
       y="0"
       width="100%"
       height="100%"
       style="fill:#f6ae45;stroke:#000000;stroke-width:0.926"
       transform="matrix(-0.560117,0,0,0.560117,234.55196,-72.449205)" />
    <use
       xlink:href="#i"
       id="use310"
       x="0"
       y="0"
       width="100%"
       height="100%"
       style="fill:#f6ae45;stroke:#000000;stroke-width:0.926"
       transform="matrix(-0.560117,0,0,0.560117,234.55196,-72.449205)" />
    <use
       xlink:href="#j"
       id="use312"
       x="0"
       y="0"
       width="100%"
       height="100%"
       style="fill:#f6ae45;stroke:#000000;stroke-width:0.926"
       transform="matrix(-0.560117,0,0,0.560117,234.55196,-72.449205)" />
    <use
       xlink:href="#k"
       id="use314"
       x="0"
       y="0"
       width="100%"
       height="100%"
       style="fill:#f6ae45;stroke:#000000;stroke-width:0.926"
       transform="matrix(-0.560117,0,0,0.560117,234.55196,-72.449205)" />
    <use
       xlink:href="#l"
       id="use316"
       x="0"
       y="0"
       width="100%"
       height="100%"
       style="fill:#f6ae45;stroke:#000000;stroke-width:0.926"
       transform="matrix(-0.560117,0,0,0.560117,234.55196,-72.449205)" />
    <use
       xlink:href="#m"
       id="use318"
       x="0"
       y="0"
       width="100%"
       height="100%"
       style="fill:#f6ae45;stroke:#000000;stroke-width:0.926"
       transform="matrix(-0.560117,0,0,0.560117,234.55196,-72.449205)" />
    <use
       xlink:href="#n"
       fill="#137d7a"
       class="B C"
       id="use326"
       x="0"
       y="0"
       width="100%"
       height="100%"
       transform="matrix(-0.560117,0,0,0.560117,234.55196,-72.449205)" />
  </g>
  <g
     id="g1664">
    <path
       d="m 34.642685,79.294332 c -1.834383,0.28566 -3.107529,1.43446 -4.83437,1.548723"
       class="B F R"
       id="path264" />
    <path
       d="m 37.338685,79.294332 c 1.834383,0.28566 3.107529,1.43446 4.83437,1.548723"
       class="B F R"
       id="path324" />
    <path
       d="M 1.021,88.277 C 10.868,78.598 18.411,83.059 18.928,85.404 13.371,92.145 7.332,86.36 1.021,88.277 Z"
       id="path332"
       style="fill:#ffe100;stroke:#000000;stroke-width:0.529" />
    <path
       d="m 28.31,80.194 c -4.973,3.069 -10.07,1.881 -15.166,0.709 -3.474,4.548 2.711,6.722 5.339,6.567 5.279,0.071 9.674,-2.391 11.812,-0.803 l 0.472,-4.866 c 0.152,-1.656 -0.984,-1.825 -2.457,-1.606 z"
       id="path334"
       style="fill:#ffe100;stroke:#000000;stroke-width:0.529" />
    <path
       style="fill:#ffe100;stroke:#000000;stroke-width:0.529"
       d="m 70.961,88.277 c -9.847,-9.679 -17.39,-5.218 -17.907,-2.873 5.557,6.741 11.596,0.956 17.907,2.873 z"
       id="path1647" />
    <path
       d="m 43.672,80.194 c 4.973,3.069 10.07,1.881 15.166,0.709 3.474,4.548 -2.711,6.722 -5.339,6.567 -5.279,0.071 -9.674,-2.391 -11.812,-0.803 l -0.472,-4.866 c -0.152,-1.656 0.984,-1.825 2.457,-1.606 z"
       id="path338"
       style="fill:#ffe100;stroke:#000000;stroke-width:0.529" />
    <path
       style="fill:#ffe100;stroke:#000000;stroke-width:0.529"
       d="m 30.643,83.072 c -0.663,0.256 -1.873,2.777 -0.774,4.965 1.188,2.123 2.952,2.674 6.122,2.598 3.169,0.076 4.934,-0.476 6.122,-2.598 1.099,-2.187 -0.111,-4.708 -0.774,-4.965 -1.494,0.424 -2.837,0.904 -5.347,0.947 -2.511,-0.043 -3.853,-0.523 -5.347,-0.947 z"
       id="path336" />
    <path
       d="m 9.174,83.375 a 1.01,1.01 0 0 0 -1.006,1.006 c 0,0.073 0.008,0.143 0.023,0.211 a 1,1 0 0 0 -0.197,-0.02 1.01,1.01 0 0 0 -1.006,1.006 1.01,1.01 0 0 0 1.006,1.006 c 0.133,0 0.259,-0.027 0.376,-0.074 -0.015,0.069 -0.024,0.14 -0.024,0.213 a 1.01,1.01 0 0 0 1.006,1.006 1.01,1.01 0 0 0 1.006,-1.006 0.99,0.99 0 0 0 -0.116,-0.457 c 0.084,0.023 0.17,0.039 0.26,0.039 a 1.01,1.01 0 0 0 1.006,-1.006 1.01,1.01 0 0 0 -1.006,-1.006 c -0.114,0 -0.222,0.023 -0.325,0.059 A 1.01,1.01 0 0 0 9.174,83.375 Z m 0,0.403 a 0.6035,0.6035 0 1 1 0,1.207 0.6035,0.6035 0 1 1 0,-1.207 z m 1.328,0.92 a 0.6025,0.6025 0 1 1 0,1.205 A 0.6,0.6 0 0 1 9.9,85.299 c 0,-0.335 0.266,-0.602 0.602,-0.602 z m -2.508,0.28 c 0.335,0 0.602,0.266 0.602,0.602 a 0.6025,0.6025 0 1 1 -1.205,0 0.6,0.6 0 0 1 0.604,-0.602 z m 1.358,1.143 a 0.6035,0.6035 0 1 1 0,1.207 0.6035,0.6035 0 1 1 0,-1.207 z"
       class="G"
       id="path342"
       style="fill:#8b0000;fill-rule:evenodd" />
    <use
       xlink:href="#o"
       class="G"
       id="use344"
       style="fill:#8b0000;fill-rule:evenodd"
       x="0"
       y="0"
       width="100%"
       height="100%" />
    <use
       xlink:href="#o"
       x="-10.276"
       y="0.63800001"
       class="G"
       id="use348"
       style="fill:#008000;fill-rule:evenodd"
       width="100%"
       height="100%" />
    <use
       xlink:href="#o"
       x="6.8959999"
       y="3.244"
       class="G"
       id="use350"
       style="fill:#008000;fill-rule:evenodd"
       width="100%"
       height="100%" />
    <path
       d="m 62.808,83.375 a 1.01,1.01 0 0 1 1.006,1.006 0.97,0.97 0 0 1 -0.023,0.211 c 0.064,-0.013 0.13,-0.02 0.197,-0.02 a 1.01,1.01 0 0 1 1.006,1.006 1.01,1.01 0 0 1 -1.006,1.006 c -0.133,0 -0.259,-0.027 -0.376,-0.074 0.015,0.069 0.024,0.14 0.024,0.213 a 1.01,1.01 0 0 1 -1.006,1.006 1.01,1.01 0 0 1 -1.006,-1.006 0.99,0.99 0 0 1 0.116,-0.457 0.99,0.99 0 0 1 -0.26,0.039 1.01,1.01 0 0 1 -1.006,-1.006 1.01,1.01 0 0 1 1.006,-1.006 c 0.114,0 0.222,0.023 0.325,0.059 a 1.01,1.01 0 0 1 1.003,-0.977 z m 0,0.403 a 0.6035,0.6035 0 1 0 0,1.207 0.6035,0.6035 0 1 0 0,-1.207 z m -1.328,0.92 a 0.6025,0.6025 0 1 0 0,1.205 0.6,0.6 0 0 0 0.602,-0.604 c 0,-0.335 -0.266,-0.602 -0.602,-0.602 z m 2.508,0.28 c -0.335,0 -0.602,0.266 -0.602,0.602 a 0.6025,0.6025 0 1 0 1.205,0 0.6,0.6 0 0 0 -0.604,-0.602 z M 62.63,86.12 a 0.6035,0.6035 0 1 0 0,1.207 0.6035,0.6035 0 1 0 0,-1.207 z"
       class="G"
       id="path354"
       style="fill:#8b0000;fill-rule:evenodd" />
    <use
       xlink:href="#p"
       class="G"
       id="use356"
       style="fill:#8b0000;fill-rule:evenodd"
       x="0"
       y="0"
       width="100%"
       height="100%" />
    <use
       xlink:href="#p"
       x="10.276"
       y="0.63800001"
       class="G"
       id="use360"
       style="fill:#008000;fill-rule:evenodd"
       width="100%"
       height="100%" />
    <use
       xlink:href="#p"
       x="-6.8959999"
       y="3.244"
       class="G"
       id="use362"
       style="fill:#008000;fill-rule:evenodd"
       width="100%"
       height="100%" />
  </g>
</svg>
